<?xml version="1.0" encoding="iso-8859-1"?>
<!-- Generator: Adobe Illustrator 27.2.0, SVG Export Plug-In . SVG Version: 6.00 Build 0)  -->
<svg version="1.1" id="image" xmlns="http://www.w3.org/2000/svg" xmlns:xlink="http://www.w3.org/1999/xlink" x="0px" y="0px"
	 width="57.4459px" height="57.4459px" viewBox="0 0 57.4459 57.4459" enable-background="new 0 0 57.4459 57.4459"
	 xml:space="preserve">
<g>
	<defs>
		<rect id="SVGID_1_" width="57.4459" height="57.4459"/>
	</defs>
	<clipPath id="SVGID_00000121239874192415131610000017274730673056419758_">
		<use xlink:href="#SVGID_1_"  overflow="visible"/>
	</clipPath>
	
		<path clip-path="url(#SVGID_00000121239874192415131610000017274730673056419758_)" fill="#FFFFFF" stroke="#000000" stroke-width="0.8" d="
		M45.5427,56.1415c0,4.8724-7.5094,8.8199-16.7762,8.8199c-9.2598,0-16.7688-3.9475-16.7688-8.8199
		c0-4.8646,7.509-8.8125,16.7688-8.8125C38.0334,47.329,45.5427,51.2769,45.5427,56.1415z"/>
	
		<path clip-path="url(#SVGID_00000121239874192415131610000017274730673056419758_)" fill="#FFFFFF" stroke="#000000" stroke-width="0.8" d="
		M45.5427,52.2232c0,4.8724-7.5094,8.8199-16.7762,8.8199c-9.2598,0-16.7688-3.9475-16.7688-8.8199
		c0-4.8646,7.509-8.8125,16.7688-8.8125C38.0334,43.4107,45.5427,47.3586,45.5427,52.2232z"/>
	
		<path clip-path="url(#SVGID_00000121239874192415131610000017274730673056419758_)" fill="#FFFFFF" stroke="#000000" stroke-width="0.8" d="
		M45.5427,48.3417c0,4.8646-7.5094,8.8125-16.7762,8.8125c-9.2598,0-16.7688-3.9479-16.7688-8.8125
		c0-4.8724,7.509-8.8199,16.7688-8.8199C38.0334,39.5218,45.5427,43.4693,45.5427,48.3417z"/>
	
		<path clip-path="url(#SVGID_00000121239874192415131610000017274730673056419758_)" fill="#FFFFFF" stroke="#000000" stroke-width="0.8" d="
		M45.5427,44.144c0,4.872-7.5094,8.8199-16.7762,8.8199c-9.2598,0-16.7688-3.9479-16.7688-8.8199
		c0-4.8646,7.509-8.8125,16.7688-8.8125C38.0334,35.3315,45.5427,39.2793,45.5427,44.144z"/>
	
		<path clip-path="url(#SVGID_00000121239874192415131610000017274730673056419758_)" fill="#FFFFFF" stroke="#000000" stroke-width="0.8" d="
		M45.5427,39.6355c0,4.8646-7.5094,8.8121-16.7762,8.8121c-9.2598,0-16.7688-3.9475-16.7688-8.8121
		c0-4.8724,7.509-8.8203,16.7688-8.8203C38.0334,30.8152,45.5427,34.7631,45.5427,39.6355z"/>
	
		<path clip-path="url(#SVGID_00000121239874192415131610000017274730673056419758_)" fill="#FFFFFF" stroke="#000000" stroke-width="0.8" d="
		M45.5427,35.7633c0,4.8646-7.5094,8.8125-16.7762,8.8125c-9.2598,0-16.7688-3.9479-16.7688-8.8125
		c0-4.872,7.509-8.8199,16.7688-8.8199C38.0334,26.9434,45.5427,30.8913,45.5427,35.7633z"/>
	
		<path clip-path="url(#SVGID_00000121239874192415131610000017274730673056419758_)" fill="#FFFFFF" stroke="#000000" stroke-width="0.8" d="
		M45.5427,31.5655c0,4.872-7.5094,8.8199-16.7762,8.8199c-9.2598,0-16.7688-3.9479-16.7688-8.8199
		c0-4.8646,7.509-8.8125,16.7688-8.8125C38.0334,22.753,45.5427,26.7009,45.5427,31.5655z"/>
	
		<path clip-path="url(#SVGID_00000121239874192415131610000017274730673056419758_)" fill="#FFFFFF" stroke="#000000" stroke-width="0.8" d="
		M45.5427,27.3752c0,4.8724-7.5094,8.8199-16.7762,8.8199c-9.2598,0-16.7688-3.9475-16.7688-8.8199
		c0-4.8646,7.509-8.8125,16.7688-8.8125C38.0334,18.5626,45.5427,22.5105,45.5427,27.3752z"/>
	
		<path clip-path="url(#SVGID_00000121239874192415131610000017274730673056419758_)" fill="#FFFFFF" stroke="#000000" stroke-width="0.8" stroke-linejoin="round" d="
		M29.7311,38.3673c3.2597,0.0212,14.4226,0.4173,15.4785-1.137c1.0643-1.5525,11.5149-12.8709,11.6817-13.0273
		c0.1753-0.1546,0.2067-11.2225,0.2067-11.2225S47.5921,5.3918,43.024,3.113c-2.937-1.4637-8.8368-2.0963-13.4817-2.2037h-0.7336
		c-4.5893,0.1073-12.0444,1.1151-14.9814,2.5788C9.2591,5.7669,0.4837,12.9805,0.4837,12.9805S0.5151,24.0484,0.6904,24.203
		c0.1669,0.1564,10.6175,11.4748,11.6817,13.0273c1.0559,1.5543,12.2188,1.1583,15.4785,1.137H29.7311z"/>
	
		<line clip-path="url(#SVGID_00000121239874192415131610000017274730673056419758_)" fill="none" stroke="#000000" stroke-width="0.8" stroke-linejoin="round" x1="13.8831" y1="26.5917" x2="14.0816" y2="37.6737"/>
	
		<path clip-path="url(#SVGID_00000121239874192415131610000017274730673056419758_)" fill="none" stroke="#000000" stroke-width="0.8" stroke-linejoin="round" d="
		M57.0981,12.9805c0,0-7.9419,4.7403-13.3994,13.6112c-0.1083-0.0942-6.6526-2.2279-13.9732-2.395h-1.8693
		c-7.3205,0.1671-13.8649,2.3008-13.9732,2.395C8.4256,17.7208,0.4837,12.9805,0.4837,12.9805"/>
	
		<line clip-path="url(#SVGID_00000121239874192415131610000017274730673056419758_)" fill="none" stroke="#000000" stroke-width="0.8" stroke-linejoin="round" x1="43.6987" y1="26.5917" x2="43.5001" y2="37.6737"/>
	
		<ellipse clip-path="url(#SVGID_00000121239874192415131610000017274730673056419758_)" fill="#FFFFFF" stroke="#000000" stroke-width="0.8" stroke-linejoin="round" cx="28.7909" cy="11.4802" rx="21.7738" ry="10.9464"/>
</g>
</svg>
