<?xml version="1.0" encoding="iso-8859-1"?>
<!-- Generator: Adobe Illustrator 27.2.0, SVG Export Plug-In . SVG Version: 6.00 Build 0)  -->
<svg version="1.1" id="web" xmlns="http://www.w3.org/2000/svg" xmlns:xlink="http://www.w3.org/1999/xlink" x="0px" y="0px"
	 width="49.6348px" height="57.0435px" viewBox="0 0 49.6348 57.0435" enable-background="new 0 0 49.6348 57.0435"
	 xml:space="preserve">
<g id="web_callouts">
</g>
<g id="web_image">
	<g>
		<path fill="#FFFFFF" stroke="#000000" stroke-width="0.8" d="M8.2465,56.6255c-0.266-0.6239-0.4064-1.2727-0.4064-1.9389
			c0-4.8646,7.509-8.8126,16.7688-8.8126c9.2668,0,16.7762,3.9479,16.7762,8.8126c0,0.6757-0.1444,1.3335-0.4179,1.9656"/>
		<path fill="#FFFFFF" stroke="#000000" stroke-width="0.8" d="M11.1417,56.7169c-2.0743-1.4667-3.3016-3.2835-3.3016-5.2503
			c0-4.8724,7.509-8.8203,16.7688-8.8203c9.2668,0,16.7762,3.9479,16.7762,8.8203c0,1.9584-1.2171,3.7682-3.276,5.2317"/>
		<path fill="#FFFFFF" stroke="#000000" stroke-width="0.8" d="M41.3851,47.5943c0,4.8646-7.5094,8.8125-16.7762,8.8125
			c-9.2598,0-16.7688-3.9479-16.7688-8.8125c0-4.8724,7.509-8.8199,16.7688-8.8199C33.8757,38.7744,41.3851,42.722,41.3851,47.5943z
			"/>
		<path fill="#FFFFFF" stroke="#000000" stroke-width="0.8" d="M41.3851,43.3966c0,4.872-7.5094,8.8199-16.7762,8.8199
			c-9.2598,0-16.7688-3.9479-16.7688-8.8199c0-4.8646,7.509-8.8125,16.7688-8.8125C33.8757,34.5841,41.3851,38.532,41.3851,43.3966z
			"/>
		<path fill="#FFFFFF" stroke="#000000" stroke-width="0.8" d="M41.3851,38.8881c0,4.8646-7.5094,8.8121-16.7762,8.8121
			c-9.2598,0-16.7688-3.9475-16.7688-8.8121c0-4.8724,7.509-8.8203,16.7688-8.8203C33.8757,30.0678,41.3851,34.0157,41.3851,38.8881
			z"/>
		<path fill="#FFFFFF" stroke="#000000" stroke-width="0.8" d="M41.3851,35.0159c0,4.8646-7.5094,8.8125-16.7762,8.8125
			c-9.2598,0-16.7688-3.9479-16.7688-8.8125c0-4.872,7.509-8.8199,16.7688-8.8199C33.8757,26.196,41.3851,30.1439,41.3851,35.0159z"
			/>
		<path fill="#FFFFFF" stroke="#000000" stroke-width="0.8" d="M41.3851,30.8182c0,4.872-7.5094,8.8199-16.7762,8.8199
			c-9.2598,0-16.7688-3.9479-16.7688-8.8199c0-4.8646,7.509-8.8125,16.7688-8.8125C33.8757,22.0056,41.3851,25.9535,41.3851,30.8182
			z"/>
		<path fill="#FFFFFF" stroke="#000000" stroke-width="0.8" d="M41.3851,26.6278c0,4.8724-7.5094,8.8199-16.7762,8.8199
			c-9.2598,0-16.7688-3.9475-16.7688-8.8199c0-4.8646,7.509-8.8125,16.7688-8.8125C33.8757,17.8153,41.3851,21.7632,41.3851,26.6278
			z"/>
		<path fill="#FFFFFF" stroke="#000000" stroke-width="0.8" d="M41.3851,22.7482c0,4.8724-7.5094,8.8199-16.7762,8.8199
			c-9.2598,0-16.7688-3.9475-16.7688-8.8199c0-4.8646,7.509-8.8125,16.7688-8.8125C33.8757,13.9357,41.3851,17.8836,41.3851,22.7482
			z"/>
		<path fill="#FFFFFF" stroke="#000000" stroke-width="0.8" d="M41.3851,18.8686c0,4.8724-7.5094,8.8199-16.7762,8.8199
			c-9.2598,0-16.7688-3.9475-16.7688-8.8199c0-4.8646,7.509-8.8125,16.7688-8.8125C33.8757,10.0561,41.3851,14.004,41.3851,18.8686z
			"/>
	</g>
	<g>
		<path fill="#FFFFFF" stroke="#000000" stroke-width="0.8" stroke-miterlimit="10" d="M49.2124,35.2549
			c0,6.9067-10.927,12.5057-24.4062,12.5057S0.4,42.1616,0.4,35.2549V12.9057C0.4,5.999,11.327,0.4,24.8062,0.4
			s24.4062,5.599,24.4062,12.5057C49.2124,12.9057,49.2124,35.2549,49.2124,35.2549z"/>
		<path fill="none" stroke="#000000" stroke-width="0.8" stroke-miterlimit="10" d="M0.4224,12.9057
			c0,6.9067,10.927,12.5057,24.4062,12.5057s24.4062-5.599,24.4062-12.5057"/>
		
			<ellipse fill="none" stroke="#000000" stroke-width="0.8" stroke-miterlimit="10" cx="24.8062" cy="11.3593" rx="21.6496" ry="10.9593"/>
		
			<ellipse fill="none" stroke="#000000" stroke-width="0.8" stroke-miterlimit="10" cx="24.8062" cy="11.2248" rx="15.3295" ry="7.5975"/>
		<path fill="none" stroke="#000000" stroke-width="0.8" stroke-miterlimit="10" d="M17.1758,4.6377
			c2.247,0.6404,4.8524,1.0066,7.6304,1.0066c2.7744,0,5.3766-0.3653,7.6216-1.0041"/>
		<path fill="none" stroke="#000000" stroke-width="0.8" stroke-miterlimit="10" d="M9.4844,11.2528
			c4.6518-1.3045,7.7915-3.779,7.7915-6.6171v13.2228"/>
		<path fill="none" stroke="#000000" stroke-width="0.8" stroke-miterlimit="10" d="M40.1353,11.2296
			c-4.6065-1.3105-7.7092-3.7726-7.7092-6.5938v13.178"/>
	</g>
</g>
</svg>
